<?xml version="1.0" encoding="UTF-8" standalone="no"?>
<!DOCTYPE svg PUBLIC "-//W3C//DTD SVG 1.1//EN" "http://www.w3.org/Graphics/SVG/1.1/DTD/svg11.dtd">
<svg width="100%" height="100%" viewBox="0 0 24 24" version="1.1" xmlns="http://www.w3.org/2000/svg" xmlns:xlink="http://www.w3.org/1999/xlink" xml:space="preserve" xmlns:serif="http://www.serif.com/" style="fill-rule:evenodd;clip-rule:evenodd;stroke-linejoin:round;stroke-miterlimit:2;">
    <g transform="matrix(0.652534,0,0,0.645351,-0.125577,0.0241256)">
        <path d="M18.588,0.039c10.149,-0 18.389,8.332 18.389,18.594c0,10.263 -8.24,18.595 -18.389,18.595c-10.15,-0 -18.39,-8.332 -18.39,-18.595c-0,-10.262 8.24,-18.594 18.39,-18.594Zm-9.475,24.37l1.052,-0.197l-0,4.036l3.975,-1.277l0,2.1l1.882,-0.823l2.115,2l2.988,-2l2.909,0.823l1.063,-1.868l1.957,0l-0,-1.979l1.949,-0l-0,-6.058l1.986,-1.487l-1.986,-1.502l-0.622,-2.414l-1.874,-0l-0.519,-2.615l-1.954,-0.405l0,-2.583c0,0 -7.491,2.397 -9.894,4.192c-2.046,1.528 -4.189,4.805 -5.027,6.814c-0.671,1.61 0,5.243 0,5.243Zm10.878,-5.269c1.079,-0 1.954,0.886 1.954,1.977c0,1.091 -0.875,1.978 -1.954,1.978c-1.079,-0 -1.954,-0.887 -1.954,-1.978c-0,-1.091 0.875,-1.977 1.954,-1.977Zm-0.434,-5.054c0.815,0 1.476,0.67 1.476,1.494c0,0.825 -0.661,1.494 -1.476,1.494c-0.815,0 -1.477,-0.669 -1.477,-1.494c0,-0.824 0.662,-1.494 1.477,-1.494Zm-3.996,3.252c0.719,0 1.303,0.561 1.303,1.252c-0,0.692 -0.584,1.253 -1.303,1.253c-0.719,-0 -1.303,-0.561 -1.303,-1.253c0,-0.691 0.584,-1.252 1.303,-1.252Z" style="fill:rgb(235,235,235);"/>
    </g>
</svg>
